<svg xmlns="http://www.w3.org/2000/svg" version="1.1" xlink="http://www.w3.org/1999/xlink" xmlns:svgjs="http://svgjs.com/svgjs" width="100%" height="100%" preserveAspectRatio="xMidYMid meet" viewBox="0 0 198.7001953125 146.99679565429688" overflow="visible"><defs id="SvgjsDefs12926"><linearGradient id="SvgjsLinearGradientEYhCNed_pc" gradientUnits="userSpaceOnUse" x1="2.8421709430404e-14" y1="267.7" x2="267.7" y2="-1.4210854715202e-14"><stop id="SvgjsStop12929" stop-color="#85a6f4" offset="0.05"></stop><stop id="SvgjsStop12930" stop-color="#1453e6" offset="0.95"></stop></linearGradient></defs><g id="SvgjsG12927" transform="scale(0.515970515970516)" opacity="1"><g id="SvgjsG12931" class="0y2y-tLJ4" transform="translate(77.02039321765523, 0) scale(0.8631347764399164)" light-content="false" non-strokable="false" fill="url(#SvgjsLinearGradientEYhCNed_pc)"><circle cx="133.8" cy="133.8" r="133.8"></circle></g><g id="SvgjsG12932" class="FSAZ6iE5gK" transform="translate(108.34116193852394, 31.316746373136112) scale(1.6841887620494576)" light-content="true" non-strokable="false" fill="#ffffff"><path d="M94.802 45.108a2.584 2.584 0 0 0-3.374-1.397c-8.742 3.624-15.763 3.844-21.193 2.63a2.406 2.406 0 0 0-.397-.086c-9.265-2.221-13.752-8.616-14.056-9.065a2.583 2.583 0 0 0-4.297 2.865c.076.116 4.562 6.628 13.615 10.044-1.168 3.318-3.15 9.692-3.684 16.084 0 0 .537.104 1.443.25-.442 4.363-.555 7.688-.562 8.002a2.581 2.581 0 0 0 2.5 2.66l.081.002a2.582 2.582 0 0 0 2.579-2.502c.003-.074.111-3.297.531-7.525a58.48 58.48 0 0 0 4.634.24c3.067 6.974 7.188 10.44 7.471 10.672a2.584 2.584 0 0 0 3.634-.371 2.584 2.584 0 0 0-.373-3.633c-.051-.041-2.764-2.334-5.183-7.025 1.427-.229 2.743-.58 3.847-1.1 0 0-2.562-7.826-2.735-13.826 4.219-.323 8.921-1.389 14.124-3.545a2.579 2.579 0 0 0 1.395-3.374zM47.8 36.485a2.586 2.586 0 0 0-3.58.702c-.288.427-4.775 6.845-14.059 9.069-.135.02-.269.046-.401.087-5.429 1.212-12.448.991-21.189-2.632a2.58 2.58 0 0 0-3.373 1.397 2.58 2.58 0 0 0 1.396 3.374c6.376 2.643 12.007 3.667 16.906 3.667.057 0 .11-.008.167-.008.322 2.077.684 5.186.618 8.467-2.384 8.871-7.358 13.138-7.649 13.379a2.582 2.582 0 0 0 3.271 3.996c.332-.271 6.006-5.049 8.99-14.789.852-.164 1.74-.291 2.615-.348a127.793 127.793 0 0 1 1.032 11.749 2.584 2.584 0 0 0 2.579 2.503l.082-.002a2.582 2.582 0 0 0 2.499-2.66c-.011-.406-.193-5.83-1.042-12.039.017-2.83-.006-8.431-.364-12.861 8.117-3.521 12.146-9.371 12.219-9.481a2.58 2.58 0 0 0-.717-3.57zm-20.826 9.047a9.69 9.69 0 0 0 9.69-9.69c0-5.352-4.338-9.69-9.69-9.69s-9.691 4.338-9.691 9.69c0 5.352 4.34 9.69 9.691 9.69zm40.064-17.059a.927.927 0 0 1-.108 1.05 9.533 9.533 0 0 0-2.109 4.265 9.692 9.692 0 0 0 8.093 11.618c5.005.732 9.821-2.642 10.866-7.59a9.526 9.526 0 0 0-.19-4.723.923.923 0 0 1 .328-.994c2.761-2.08.16 7.576 10.054 5.388-6.102-1.428-3.076-7.012-3.826-9.267-.718-2.111-4.483-3.987-7.86 1.375a.332.332 0 0 1-.543.034 9.545 9.545 0 0 0-5.416-3.291 9.584 9.584 0 0 0-6.271.776.332.332 0 0 1-.481-.252c-.904-6.264-5.111-6.093-6.628-4.459-1.608 1.751-1.131 8.084-7.283 6.892 8.109 6.037 9.697-3.806 11.374-.822z"></path></g><g id="SvgjsG12933" class="text" transform="translate(192.73, 277.2438543247344) scale(1)" light-content="false" fill="#3b3b3b"><path d="M-192.59 -0.14C-192.5 -0.05 -192.38 0 -192.25 0L-175.98 0C-175.84 0 -175.73 -0.05 -175.63 -0.14C-175.54 -0.23 -175.49 -0.35 -175.49 -0.48L-175.49 -4.39C-175.49 -4.52 -175.54 -4.64 -175.63 -4.73C-175.73 -4.83 -175.84 -4.87 -175.98 -4.87L-186.33 -4.87C-186.49 -4.87 -186.53 -4.95 -186.45 -5.12L-175.65 -22.88C-175.55 -23.07 -175.49 -23.27 -175.49 -23.48L-175.49 -27.71C-175.49 -27.84 -175.54 -27.96 -175.63 -28.05C-175.73 -28.15 -175.84 -28.19 -175.98 -28.19L-192.25 -28.19C-192.38 -28.19 -192.5 -28.15 -192.59 -28.05C-192.69 -27.96 -192.73 -27.85 -192.73 -27.71L-192.73 -23.8C-192.73 -23.67 -192.69 -23.56 -192.59 -23.46C-192.5 -23.37 -192.38 -23.32 -192.25 -23.32L-181.9 -23.32C-181.74 -23.32 -181.7 -23.24 -181.78 -23.08L-192.57 -5.32C-192.68 -5.13 -192.73 -4.93 -192.73 -4.71L-192.73 -0.48C-192.73 -0.35 -192.69 -0.23 -192.59 -0.14Z M-160.23 -20.16C-161.49 -20.74 -162.94 -21.03 -164.58 -21.03C-166.89 -21.03 -168.8 -20.45 -170.32 -19.31C-171.83 -18.17 -172.66 -16.68 -172.79 -14.82C-172.82 -14.69 -172.79 -14.58 -172.69 -14.5C-172.6 -14.42 -172.49 -14.38 -172.35 -14.38L-167.48 -14.1C-167.18 -14.1 -166.99 -14.23 -166.91 -14.5C-166.81 -15.01 -166.54 -15.41 -166.11 -15.71C-165.68 -16 -165.15 -16.15 -164.54 -16.15C-163.7 -16.15 -163.05 -15.91 -162.58 -15.43C-162.11 -14.94 -161.88 -14.3 -161.88 -13.49L-161.88 -12.57C-161.88 -12.43 -161.95 -12.37 -162.08 -12.37L-165.06 -12.37C-170.54 -12.37 -173.28 -10.18 -173.28 -5.8C-173.28 -3.6 -172.67 -2.03 -171.47 -1.09C-170.26 -0.15 -168.75 0.32 -166.95 0.32C-164.81 0.32 -163.19 -0.34 -162.12 -1.65C-162.07 -1.73 -162.01 -1.76 -161.96 -1.73C-161.91 -1.71 -161.88 -1.65 -161.88 -1.57L-161.88 -0.48C-161.88 -0.35 -161.83 -0.23 -161.74 -0.14C-161.64 -0.05 -161.53 0 -161.4 0L-156.68 0C-156.55 0 -156.43 -0.05 -156.34 -0.14C-156.25 -0.23 -156.2 -0.35 -156.2 -0.48L-156.2 -14.22C-156.2 -15.53 -156.56 -16.71 -157.27 -17.74C-157.98 -18.78 -158.97 -19.58 -160.23 -20.16ZM-162.85 -4.75C-163.49 -4.24 -164.27 -3.99 -165.18 -3.99C-165.88 -3.99 -166.44 -4.18 -166.87 -4.55C-167.3 -4.93 -167.52 -5.46 -167.52 -6.16C-167.52 -6.97 -167.24 -7.59 -166.67 -8.02C-166.11 -8.45 -165.34 -8.66 -164.38 -8.66L-162.08 -8.66C-161.95 -8.66 -161.88 -8.59 -161.88 -8.46L-161.88 -6.77C-161.88 -5.93 -162.2 -5.26 -162.85 -4.75Z M-127.46 -19.15C-128.49 -20.4 -129.99 -21.03 -131.95 -21.03C-133 -21.03 -133.98 -20.8 -134.89 -20.36C-135.81 -19.92 -136.56 -19.2 -137.15 -18.21C-137.2 -18.13 -137.26 -18.08 -137.31 -18.06C-137.36 -18.05 -137.4 -18.07 -137.43 -18.13C-137.91 -19.07 -138.59 -19.78 -139.46 -20.28C-140.34 -20.78 -141.38 -21.03 -142.59 -21.03C-143.44 -21.03 -144.25 -20.87 -145 -20.56C-145.75 -20.25 -146.41 -19.76 -146.98 -19.09C-147.03 -19.01 -147.08 -18.98 -147.14 -19.01C-147.19 -19.04 -147.22 -19.09 -147.22 -19.17L-147.22 -20.22C-147.22 -20.35 -147.26 -20.47 -147.36 -20.56C-147.45 -20.66 -147.57 -20.7 -147.7 -20.7L-152.37 -20.7C-152.51 -20.7 -152.62 -20.66 -152.72 -20.56C-152.81 -20.47 -152.86 -20.35 -152.86 -20.22L-152.86 -0.48C-152.86 -0.35 -152.81 -0.23 -152.72 -0.14C-152.62 -0.05 -152.51 0 -152.37 0L-147.7 0C-147.57 0 -147.45 -0.05 -147.36 -0.14C-147.26 -0.23 -147.22 -0.35 -147.22 -0.48L-147.22 -13.13C-147.22 -14.04 -146.99 -14.78 -146.53 -15.33C-146.08 -15.88 -145.46 -16.15 -144.68 -16.15C-143.93 -16.15 -143.32 -15.88 -142.87 -15.33C-142.41 -14.78 -142.18 -14.03 -142.18 -13.09L-142.18 -0.48C-142.18 -0.35 -142.14 -0.23 -142.04 -0.14C-141.95 -0.05 -141.83 0 -141.7 0L-137.03 0C-136.89 0 -136.78 -0.05 -136.68 -0.14C-136.59 -0.23 -136.54 -0.35 -136.54 -0.48L-136.54 -13.13C-136.54 -14.04 -136.32 -14.78 -135.86 -15.33C-135.4 -15.88 -134.79 -16.15 -134.01 -16.15C-133.25 -16.15 -132.66 -15.88 -132.21 -15.33C-131.77 -14.78 -131.55 -14.03 -131.55 -13.09L-131.55 -0.48C-131.55 -0.35 -131.5 -0.23 -131.41 -0.14C-131.32 -0.05 -131.2 0 -131.07 0L-126.39 0C-126.26 0 -126.15 -0.05 -126.05 -0.14C-125.96 -0.23 -125.91 -0.35 -125.91 -0.48L-125.91 -13.9C-125.91 -16.15 -126.43 -17.9 -127.46 -19.15Z M-122.31 -0.14C-122.21 -0.05 -122.1 0 -121.96 0L-117.25 0C-117.12 0 -117 -0.05 -116.91 -0.14C-116.81 -0.23 -116.77 -0.35 -116.77 -0.48L-116.77 -6.2C-116.77 -6.26 -116.74 -6.34 -116.69 -6.44L-114.75 -9.1C-114.7 -9.16 -114.65 -9.18 -114.59 -9.18C-114.54 -9.18 -114.5 -9.14 -114.47 -9.06L-111.21 -0.4C-111.13 -0.13 -110.94 0 -110.64 0L-105.69 0C-105.42 0 -105.29 -0.11 -105.29 -0.32C-105.29 -0.43 -105.3 -0.51 -105.33 -0.56L-110.81 -13.21C-110.86 -13.32 -110.86 -13.41 -110.81 -13.49L-106.05 -20.1C-105.97 -20.23 -105.93 -20.34 -105.93 -20.42C-105.93 -20.61 -106.07 -20.7 -106.34 -20.7L-111.45 -20.7C-111.69 -20.7 -111.88 -20.61 -112.01 -20.42L-116.53 -14.18C-116.58 -14.1 -116.63 -14.07 -116.69 -14.1C-116.74 -14.12 -116.77 -14.18 -116.77 -14.26L-116.77 -27.71C-116.77 -27.84 -116.81 -27.96 -116.91 -28.05C-117 -28.15 -117.12 -28.19 -117.25 -28.19L-121.96 -28.19C-122.1 -28.19 -122.21 -28.15 -122.31 -28.05C-122.4 -27.96 -122.45 -27.85 -122.45 -27.71L-122.45 -0.48C-122.45 -0.35 -122.4 -0.23 -122.31 -0.14Z M-102.01 -23.62C-101.37 -22.99 -100.56 -22.68 -99.57 -22.68C-98.55 -22.68 -97.73 -22.99 -97.11 -23.62C-96.49 -24.25 -96.18 -25.07 -96.18 -26.06C-96.18 -27.05 -96.5 -27.86 -97.13 -28.48C-97.76 -29.09 -98.57 -29.4 -99.57 -29.4C-100.56 -29.4 -101.37 -29.09 -102.01 -28.48C-102.64 -27.86 -102.95 -27.05 -102.95 -26.06C-102.95 -25.07 -102.64 -24.25 -102.01 -23.62ZM-102.29 -0.14C-102.19 -0.05 -102.08 0 -101.94 0L-97.23 0C-97.1 0 -96.98 -0.05 -96.89 -0.14C-96.8 -0.23 -96.75 -0.35 -96.75 -0.48L-96.75 -20.22C-96.75 -20.35 -96.8 -20.47 -96.89 -20.56C-96.98 -20.66 -97.1 -20.7 -97.23 -20.7L-101.94 -20.7C-102.08 -20.7 -102.19 -20.66 -102.29 -20.56C-102.38 -20.47 -102.43 -20.35 -102.43 -20.22L-102.43 -0.48C-102.43 -0.35 -102.38 -0.23 -102.29 -0.14Z M-73.81 -28.05C-73.9 -27.96 -73.95 -27.85 -73.95 -27.71L-73.95 -19.41C-73.95 -19.33 -73.98 -19.28 -74.03 -19.25C-74.09 -19.23 -74.14 -19.25 -74.19 -19.33C-74.7 -19.95 -75.29 -20.39 -75.97 -20.64C-76.64 -20.9 -77.44 -21.03 -78.38 -21.03C-81.85 -21.03 -83.99 -18.94 -84.83 -14.78C-85.07 -13.41 -85.19 -12 -85.19 -10.55C-85.19 -8.86 -85.04 -7.37 -84.75 -6.08C-83.86 -1.81 -81.77 0.32 -78.46 0.32C-76.61 0.32 -75.19 -0.26 -74.19 -1.41C-74.14 -1.49 -74.09 -1.52 -74.03 -1.49C-73.98 -1.46 -73.95 -1.41 -73.95 -1.33L-73.95 -0.48C-73.95 -0.35 -73.9 -0.23 -73.81 -0.14C-73.72 -0.05 -73.6 0 -73.47 0L-68.76 0C-68.62 0 -68.51 -0.05 -68.41 -0.14C-68.32 -0.23 -68.27 -0.35 -68.27 -0.48L-68.27 -27.71C-68.27 -27.84 -68.32 -27.96 -68.41 -28.05C-68.51 -28.15 -68.62 -28.19 -68.76 -28.19L-73.47 -28.19C-73.6 -28.19 -73.72 -28.15 -73.81 -28.05ZM-73.99 -10.39C-73.99 -8.83 -74.09 -7.67 -74.27 -6.89C-74.62 -5.33 -75.43 -4.55 -76.69 -4.55C-77.95 -4.55 -78.78 -5.34 -79.19 -6.93C-79.38 -7.87 -79.47 -9.02 -79.47 -10.39C-79.47 -12 -79.35 -13.2 -79.11 -13.98C-78.68 -15.43 -77.86 -16.15 -76.65 -16.15C-76.03 -16.15 -75.52 -15.96 -75.12 -15.57C-74.72 -15.18 -74.45 -14.63 -74.31 -13.94C-74.1 -13.13 -73.99 -11.95 -73.99 -10.39Z M-39.21 -19.15C-40.24 -20.4 -41.74 -21.03 -43.7 -21.03C-44.75 -21.03 -45.73 -20.8 -46.64 -20.36C-47.56 -19.92 -48.31 -19.2 -48.9 -18.21C-48.95 -18.13 -49.01 -18.08 -49.06 -18.06C-49.11 -18.05 -49.15 -18.07 -49.18 -18.13C-49.66 -19.07 -50.34 -19.78 -51.21 -20.28C-52.09 -20.78 -53.13 -21.03 -54.34 -21.03C-55.19 -21.03 -56 -20.87 -56.75 -20.56C-57.5 -20.25 -58.16 -19.76 -58.73 -19.09C-58.78 -19.01 -58.83 -18.98 -58.89 -19.01C-58.94 -19.04 -58.97 -19.09 -58.97 -19.17L-58.97 -20.22C-58.97 -20.35 -59.01 -20.47 -59.11 -20.56C-59.2 -20.66 -59.32 -20.7 -59.45 -20.7L-64.12 -20.7C-64.26 -20.7 -64.37 -20.66 -64.47 -20.56C-64.56 -20.47 -64.61 -20.35 -64.61 -20.22L-64.61 -0.48C-64.61 -0.35 -64.56 -0.23 -64.47 -0.14C-64.37 -0.05 -64.26 0 -64.12 0L-59.45 0C-59.32 0 -59.2 -0.05 -59.11 -0.14C-59.01 -0.23 -58.97 -0.35 -58.97 -0.48L-58.97 -13.13C-58.97 -14.04 -58.74 -14.78 -58.28 -15.33C-57.83 -15.88 -57.21 -16.15 -56.43 -16.15C-55.68 -16.15 -55.07 -15.88 -54.62 -15.33C-54.16 -14.78 -53.93 -14.03 -53.93 -13.09L-53.93 -0.48C-53.93 -0.35 -53.89 -0.23 -53.79 -0.14C-53.7 -0.05 -53.58 0 -53.45 0L-48.78 0C-48.64 0 -48.53 -0.05 -48.43 -0.14C-48.34 -0.23 -48.29 -0.35 -48.29 -0.48L-48.29 -13.13C-48.29 -14.04 -48.07 -14.78 -47.61 -15.33C-47.15 -15.88 -46.54 -16.15 -45.76 -16.15C-45 -16.15 -44.41 -15.88 -43.96 -15.33C-43.52 -14.78 -43.3 -14.03 -43.3 -13.09L-43.3 -0.48C-43.3 -0.35 -43.25 -0.23 -43.16 -0.14C-43.07 -0.05 -42.95 0 -42.82 0L-38.14 0C-38.01 0 -37.9 -0.05 -37.8 -0.14C-37.71 -0.23 -37.66 -0.35 -37.66 -0.48L-37.66 -13.9C-37.66 -16.15 -38.18 -17.9 -39.21 -19.15Z M-23.38 -20.56C-23.48 -20.47 -23.52 -20.35 -23.52 -20.22L-23.52 -7.65C-23.52 -6.71 -23.76 -5.96 -24.23 -5.4C-24.7 -4.83 -25.34 -4.55 -26.14 -4.55C-26.95 -4.55 -27.57 -4.82 -28.01 -5.36C-28.46 -5.89 -28.68 -6.63 -28.68 -7.57L-28.68 -20.22C-28.68 -20.35 -28.73 -20.47 -28.82 -20.56C-28.91 -20.66 -29.03 -20.7 -29.16 -20.7L-33.87 -20.7C-34.01 -20.7 -34.12 -20.66 -34.22 -20.56C-34.31 -20.47 -34.36 -20.35 -34.36 -20.22L-34.36 -6.24C-34.36 -4.09 -33.77 -2.47 -32.59 -1.37C-31.4 -0.27 -29.9 0.28 -28.07 0.28C-26.11 0.28 -24.68 -0.34 -23.76 -1.57C-23.71 -1.62 -23.66 -1.64 -23.6 -1.63C-23.55 -1.62 -23.52 -1.57 -23.52 -1.49L-23.52 -0.48C-23.52 -0.35 -23.48 -0.23 -23.38 -0.14C-23.29 -0.05 -23.17 0 -23.04 0L-18.33 0C-18.19 0 -18.08 -0.05 -17.98 -0.14C-17.89 -0.23 -17.84 -0.35 -17.84 -0.48L-17.84 -20.22C-17.84 -20.35 -17.89 -20.47 -17.98 -20.56C-18.08 -20.66 -18.19 -20.7 -18.33 -20.7L-23.04 -20.7C-23.17 -20.7 -23.29 -20.66 -23.38 -20.56Z M-11.58 -1.39C-10.12 -0.25 -8.26 0.32 -6 0.32C-3.72 0.32 -1.83 -0.24 -0.34 -1.37C1.15 -2.5 2.03 -4.04 2.3 -6C2.35 -6.38 2.38 -6.65 2.38 -6.81C2.38 -7.1 2.23 -7.28 1.93 -7.33L-2.74 -7.73C-2.87 -7.76 -2.99 -7.73 -3.08 -7.63C-3.18 -7.54 -3.24 -7.42 -3.26 -7.29L-3.34 -6.81C-3.42 -6.16 -3.7 -5.63 -4.17 -5.2C-4.64 -4.77 -5.26 -4.55 -6.04 -4.55C-6.77 -4.55 -7.35 -4.77 -7.79 -5.2C-8.24 -5.63 -8.53 -6.2 -8.66 -6.93C-8.85 -7.76 -8.94 -8.91 -8.94 -10.39C-8.94 -11.73 -8.86 -12.85 -8.7 -13.73C-8.57 -14.49 -8.27 -15.08 -7.81 -15.51C-7.36 -15.94 -6.77 -16.15 -6.04 -16.15C-5.37 -16.15 -4.81 -15.98 -4.35 -15.63C-3.89 -15.28 -3.58 -14.84 -3.42 -14.3C-3.37 -14.14 -3.32 -13.95 -3.26 -13.73C-3.24 -13.65 -3.22 -13.52 -3.22 -13.33C-3.17 -13.04 -3.02 -12.89 -2.78 -12.89L-2.7 -12.89L1.93 -13.33C2.26 -13.39 2.42 -13.56 2.42 -13.86C2.36 -14.39 2.31 -14.78 2.26 -15.02C1.91 -16.82 0.99 -18.27 -0.5 -19.37C-1.99 -20.47 -3.83 -21.03 -6 -21.03C-8.23 -21.03 -10.08 -20.45 -11.56 -19.31C-13.04 -18.17 -13.95 -16.63 -14.3 -14.7C-14.51 -13.2 -14.62 -11.77 -14.62 -10.43C-14.62 -8.63 -14.51 -7.18 -14.3 -6.08C-13.95 -4.09 -13.04 -2.53 -11.58 -1.39Z M20.2 -19.15C19.09 -20.4 17.55 -21.03 15.59 -21.03C13.73 -21.03 12.31 -20.38 11.32 -19.09C11.24 -19.01 11.17 -18.98 11.12 -18.99C11.06 -19 11.04 -19.05 11.04 -19.13L11.04 -27.71C11.04 -27.84 10.99 -27.96 10.9 -28.05C10.8 -28.15 10.69 -28.19 10.55 -28.19L5.84 -28.19C5.71 -28.19 5.59 -28.15 5.5 -28.05C5.4 -27.96 5.36 -27.85 5.36 -27.71L5.36 -0.48C5.36 -0.35 5.4 -0.23 5.5 -0.14C5.59 -0.05 5.71 0 5.84 0L10.55 0C10.69 0 10.8 -0.05 10.9 -0.14C10.99 -0.23 11.04 -0.35 11.04 -0.48L11.04 -13.09C11.04 -14.03 11.27 -14.78 11.74 -15.33C12.21 -15.88 12.85 -16.15 13.65 -16.15C14.43 -16.15 15.05 -15.88 15.51 -15.35C15.96 -14.81 16.19 -14.07 16.19 -13.13L16.19 -0.48C16.19 -0.35 16.24 -0.23 16.33 -0.14C16.43 -0.05 16.54 0 16.68 0L21.39 0C21.52 0 21.64 -0.05 21.73 -0.14C21.82 -0.23 21.87 -0.35 21.87 -0.48L21.87 -13.94C21.87 -16.17 21.31 -17.9 20.2 -19.15Z M37.58 -20.16C36.32 -20.74 34.87 -21.03 33.23 -21.03C30.92 -21.03 29.01 -20.45 27.49 -19.31C25.97 -18.17 25.15 -16.68 25.01 -14.82C24.99 -14.69 25.02 -14.58 25.11 -14.5C25.21 -14.42 25.32 -14.38 25.46 -14.38L30.33 -14.1C30.63 -14.1 30.81 -14.23 30.89 -14.5C31 -15.01 31.27 -15.41 31.7 -15.71C32.13 -16 32.65 -16.15 33.27 -16.15C34.1 -16.15 34.75 -15.91 35.22 -15.43C35.69 -14.94 35.93 -14.3 35.93 -13.49L35.93 -12.57C35.93 -12.43 35.86 -12.37 35.73 -12.37L32.75 -12.37C27.27 -12.37 24.53 -10.18 24.53 -5.8C24.53 -3.6 25.13 -2.03 26.34 -1.09C27.55 -0.15 29.05 0.32 30.85 0.32C33 0.32 34.61 -0.34 35.69 -1.65C35.74 -1.73 35.79 -1.76 35.85 -1.73C35.9 -1.71 35.93 -1.65 35.93 -1.57L35.93 -0.48C35.93 -0.35 35.98 -0.23 36.07 -0.14C36.16 -0.05 36.28 0 36.41 0L41.12 0C41.26 0 41.37 -0.05 41.47 -0.14C41.56 -0.23 41.61 -0.35 41.61 -0.48L41.61 -14.22C41.61 -15.53 41.25 -16.71 40.54 -17.74C39.83 -18.78 38.84 -19.58 37.58 -20.16ZM34.96 -4.75C34.32 -4.24 33.54 -3.99 32.63 -3.99C31.93 -3.99 31.36 -4.18 30.93 -4.55C30.5 -4.93 30.29 -5.46 30.29 -6.16C30.29 -6.97 30.57 -7.59 31.14 -8.02C31.7 -8.45 32.46 -8.66 33.43 -8.66L35.73 -8.66C35.86 -8.66 35.93 -8.59 35.93 -8.46L35.93 -6.77C35.93 -5.93 35.61 -5.26 34.96 -4.75Z M59.79 -19.15C58.68 -20.4 57.14 -21.03 55.18 -21.03C53.33 -21.03 51.91 -20.38 50.91 -19.09C50.83 -19.01 50.76 -18.98 50.71 -18.99C50.66 -19 50.63 -19.05 50.63 -19.13L50.63 -20.22C50.63 -20.35 50.58 -20.47 50.49 -20.56C50.4 -20.66 50.28 -20.7 50.15 -20.7L45.43 -20.7C45.3 -20.7 45.19 -20.66 45.09 -20.56C45 -20.47 44.95 -20.35 44.95 -20.22L44.95 -0.48C44.95 -0.35 45 -0.23 45.09 -0.14C45.19 -0.05 45.3 0 45.43 0L50.15 0C50.28 0 50.39 -0.05 50.49 -0.14C50.58 -0.23 50.63 -0.35 50.63 -0.48L50.63 -13.09C50.63 -14.03 50.86 -14.78 51.33 -15.33C51.8 -15.88 52.44 -16.15 53.25 -16.15C54.03 -16.15 54.64 -15.88 55.1 -15.35C55.56 -14.81 55.79 -14.07 55.79 -13.13L55.79 -0.48C55.79 -0.35 55.83 -0.23 55.93 -0.14C56.02 -0.05 56.13 0 56.27 0L60.98 0C61.12 0 61.23 -0.05 61.32 -0.14C61.42 -0.23 61.46 -0.35 61.46 -0.48L61.46 -13.94C61.46 -16.17 60.91 -17.9 59.79 -19.15Z M75.4 -5.08C74.92 -4.73 74.31 -4.54 73.59 -4.51C72.76 -4.51 72.06 -4.73 71.49 -5.18C70.93 -5.62 70.58 -6.22 70.45 -6.97C70.37 -7.37 70.33 -7.85 70.33 -8.42C70.33 -8.55 70.39 -8.62 70.53 -8.62L81.24 -8.62C81.56 -8.62 81.72 -8.78 81.72 -9.1C81.72 -10.45 81.66 -11.83 81.52 -13.25C81.28 -15.75 80.47 -17.68 79.09 -19.03C77.7 -20.39 75.72 -21.07 73.15 -21.07C70.73 -21.07 68.8 -20.43 67.37 -19.17C65.93 -17.91 65.08 -16.18 64.81 -13.98C64.7 -13.12 64.65 -12.02 64.65 -10.67C64.65 -8.66 64.83 -6.98 65.21 -5.64C65.64 -3.84 66.57 -2.4 67.99 -1.31C69.41 -0.22 71.19 0.32 73.31 0.32C75.35 0.32 77.06 -0.18 78.44 -1.19C79.83 -2.2 80.79 -3.58 81.32 -5.36C81.4 -5.68 81.28 -5.88 80.96 -5.96L77.13 -6.77C76.86 -6.85 76.66 -6.74 76.53 -6.44C76.26 -5.88 75.88 -5.42 75.4 -5.08ZM70.49 -13.82C70.78 -15.37 71.66 -16.15 73.11 -16.15C73.88 -16.15 74.5 -15.94 74.96 -15.51C75.41 -15.08 75.7 -14.49 75.8 -13.73C75.91 -13.14 75.97 -12.69 75.97 -12.37C75.97 -12.23 75.9 -12.16 75.76 -12.16L70.53 -12.16C70.39 -12.16 70.33 -12.23 70.33 -12.37C70.38 -13.06 70.43 -13.55 70.49 -13.82Z M93.3 -0.14C93.4 -0.05 93.51 0 93.65 0L98.36 0C98.49 0 98.61 -0.05 98.7 -0.14C98.8 -0.23 98.84 -0.35 98.84 -0.48L98.84 -8.54C98.84 -8.59 98.87 -8.67 98.92 -8.78L100.74 -11.4C100.79 -11.48 100.84 -11.52 100.9 -11.52C100.95 -11.52 100.99 -11.48 101.02 -11.4L106.74 -0.36C106.87 -0.12 107.06 0 107.3 0L112.46 0C112.75 0 112.9 -0.11 112.9 -0.32C112.9 -0.38 112.87 -0.46 112.82 -0.56L104.93 -15.79C104.9 -15.9 104.9 -15.99 104.93 -16.07L112.38 -27.63C112.48 -27.79 112.5 -27.93 112.44 -28.03C112.37 -28.14 112.24 -28.19 112.05 -28.19L106.86 -28.19C106.62 -28.19 106.43 -28.09 106.29 -27.87L99.08 -16.92C99.06 -16.84 99.01 -16.81 98.94 -16.84C98.88 -16.86 98.84 -16.92 98.84 -17L98.84 -27.71C98.84 -27.84 98.8 -27.96 98.7 -28.05C98.61 -28.15 98.49 -28.19 98.36 -28.19L93.65 -28.19C93.51 -28.19 93.4 -28.15 93.3 -28.05C93.21 -27.96 93.16 -27.85 93.16 -27.71L93.16 -0.48C93.16 -0.35 93.21 -0.23 93.3 -0.14Z M125.75 -5.08C125.27 -4.73 124.66 -4.54 123.94 -4.51C123.1 -4.51 122.41 -4.73 121.84 -5.18C121.28 -5.62 120.93 -6.22 120.79 -6.97C120.71 -7.37 120.67 -7.85 120.67 -8.42C120.67 -8.55 120.74 -8.62 120.88 -8.62L131.59 -8.62C131.91 -8.62 132.07 -8.78 132.07 -9.1C132.07 -10.45 132.01 -11.83 131.87 -13.25C131.63 -15.75 130.82 -17.68 129.43 -19.03C128.05 -20.39 126.07 -21.07 123.49 -21.07C121.08 -21.07 119.15 -20.43 117.71 -19.17C116.28 -17.91 115.42 -16.18 115.16 -13.98C115.05 -13.12 114.99 -12.02 114.99 -10.67C114.99 -8.66 115.18 -6.98 115.56 -5.64C115.91 -4.16 116.62 -2.91 117.69 -1.87C118.77 -0.84 120.1 -0.16 121.68 0.16C121.76 0.16 121.81 0.19 121.82 0.24C121.84 0.3 121.82 0.35 121.76 0.4C120.58 1.58 119.99 2.81 119.99 4.07C119.99 4.42 120.03 4.77 120.11 5.12C120.33 6.03 120.76 6.68 121.42 7.07C122.08 7.46 122.85 7.65 123.74 7.65C124.54 7.65 125.28 7.53 125.95 7.29C126.19 7.21 126.31 7.05 126.31 6.81L126.31 6.69L126.03 4.75C126 4.51 125.88 4.39 125.67 4.39C125.56 4.39 125.48 4.4 125.43 4.43C125.21 4.48 125.05 4.51 124.94 4.51C124.62 4.51 124.35 4.43 124.14 4.27C123.92 4.11 123.79 3.87 123.74 3.54C123.71 3.46 123.7 3.33 123.7 3.14C123.7 2.26 124.39 1.26 125.79 0.16L126.03 0.04C127.43 -0.28 128.6 -0.91 129.56 -1.83C130.51 -2.76 131.21 -3.93 131.67 -5.36C131.75 -5.68 131.63 -5.88 131.31 -5.96L127.48 -6.77C127.21 -6.85 127.01 -6.74 126.88 -6.44C126.61 -5.88 126.23 -5.42 125.75 -5.08ZM120.84 -13.82C121.13 -15.37 122 -16.15 123.45 -16.15C124.23 -16.15 124.85 -15.94 125.31 -15.51C125.76 -15.08 126.04 -14.49 126.15 -13.73C126.26 -13.14 126.31 -12.69 126.31 -12.37C126.31 -12.23 126.25 -12.16 126.11 -12.16L120.88 -12.16C120.74 -12.16 120.67 -12.23 120.67 -12.37C120.73 -13.06 120.78 -13.55 120.84 -13.82Z M152.21 -10.15C152.21 -11.84 152.06 -13.33 151.77 -14.62C150.88 -18.89 148.79 -21.03 145.49 -21.03C143.63 -21.03 142.21 -20.45 141.22 -19.29C141.16 -19.21 141.11 -19.19 141.06 -19.21C141 -19.24 140.97 -19.29 140.97 -19.37L140.97 -20.22C140.97 -20.35 140.93 -20.47 140.83 -20.56C140.74 -20.66 140.63 -20.7 140.49 -20.7L135.78 -20.7C135.64 -20.7 135.53 -20.66 135.44 -20.56C135.34 -20.47 135.3 -20.35 135.3 -20.22L135.3 7.01C135.3 7.14 135.34 7.26 135.44 7.35C135.53 7.44 135.64 7.49 135.78 7.49L140.49 7.49C140.63 7.49 140.74 7.44 140.83 7.35C140.93 7.26 140.97 7.14 140.97 7.01L140.97 -1.29C140.97 -1.37 141 -1.42 141.06 -1.45C141.11 -1.48 141.16 -1.45 141.22 -1.37C141.73 -0.75 142.32 -0.32 142.99 -0.06C143.66 0.19 144.47 0.32 145.41 0.32C148.87 0.32 151.02 -1.76 151.85 -5.92C152.09 -7.29 152.21 -8.7 152.21 -10.15ZM146.49 -10.31C146.49 -8.7 146.37 -7.51 146.13 -6.73C145.7 -5.28 144.88 -4.55 143.67 -4.55C143.06 -4.55 142.55 -4.75 142.14 -5.14C141.74 -5.52 141.47 -6.07 141.34 -6.77C141.12 -7.57 141.01 -8.75 141.01 -10.31C141.01 -11.87 141.11 -13.04 141.3 -13.82C141.65 -15.37 142.45 -16.15 143.71 -16.15C144.98 -16.15 145.81 -15.36 146.21 -13.78C146.4 -12.84 146.49 -11.68 146.49 -10.31Z M170.28 -19.15C169.16 -20.4 167.63 -21.03 165.67 -21.03C163.81 -21.03 162.39 -20.38 161.4 -19.09C161.32 -19.01 161.25 -18.98 161.19 -18.99C161.14 -19 161.11 -19.05 161.11 -19.13L161.11 -20.22C161.11 -20.35 161.07 -20.47 160.97 -20.56C160.88 -20.66 160.76 -20.7 160.63 -20.7L155.92 -20.7C155.78 -20.7 155.67 -20.66 155.58 -20.56C155.48 -20.47 155.43 -20.35 155.43 -20.22L155.43 -0.48C155.43 -0.35 155.48 -0.23 155.58 -0.14C155.67 -0.05 155.78 0 155.92 0L160.63 0C160.76 0 160.88 -0.05 160.97 -0.14C161.07 -0.23 161.11 -0.35 161.11 -0.48L161.11 -13.09C161.11 -14.03 161.35 -14.78 161.82 -15.33C162.29 -15.88 162.93 -16.15 163.73 -16.15C164.51 -16.15 165.13 -15.88 165.58 -15.35C166.04 -14.81 166.27 -14.07 166.27 -13.13L166.27 -0.48C166.27 -0.35 166.32 -0.23 166.41 -0.14C166.5 -0.05 166.62 0 166.75 0L171.47 0C171.6 0 171.71 -0.05 171.81 -0.14C171.9 -0.23 171.95 -0.35 171.95 -0.48L171.95 -13.94C171.95 -16.17 171.39 -17.9 170.28 -19.15Z M177.99 -1.45C179.47 -0.27 181.37 0.32 183.71 0.32C186.05 0.32 187.95 -0.28 189.43 -1.47C190.91 -2.67 191.79 -4.32 192.09 -6.44C192.28 -7.76 192.37 -9.09 192.37 -10.43C192.37 -11.91 192.26 -13.27 192.05 -14.5C191.75 -16.49 190.87 -18.07 189.39 -19.25C187.91 -20.43 186.03 -21.03 183.75 -21.03C181.41 -21.03 179.51 -20.43 178.03 -19.25C176.55 -18.07 175.65 -16.47 175.33 -14.46C175.14 -13.41 175.05 -12.06 175.05 -10.39C175.05 -9.02 175.14 -7.68 175.33 -6.36C175.63 -4.27 176.51 -2.63 177.99 -1.45ZM185.56 -5.28C185.08 -4.79 184.46 -4.55 183.71 -4.55C182.98 -4.55 182.37 -4.79 181.86 -5.28C181.35 -5.76 181.02 -6.4 180.89 -7.21C180.78 -8.5 180.73 -9.56 180.73 -10.39C180.73 -11.47 180.8 -12.51 180.93 -13.53C181.06 -14.34 181.37 -14.98 181.86 -15.45C182.34 -15.92 182.96 -16.15 183.71 -16.15C184.46 -16.15 185.08 -15.92 185.56 -15.45C186.05 -14.98 186.35 -14.34 186.49 -13.53C186.6 -12.7 186.65 -11.65 186.65 -10.39C186.65 -9.13 186.6 -8.07 186.49 -7.21C186.35 -6.4 186.05 -5.76 185.56 -5.28Z"></path></g></g></svg>